<?xml version="1.0"?><svg width="640" height="480" xmlns="http://www.w3.org/2000/svg">
 <!-- Created with SVG-edit - http://svg-edit.googlecode.com/ -->
 <title>purple moon</title>
 <defs>
  <filter id="svg_5_blur" x="-50%" y="-50%" width="200%" height="200%">
   <feGaussianBlur stdDeviation="6"/>
  </filter>
 </defs>
 <g>
  <title>Layer 1</title>
  <ellipse ry="2" id="svg_1" cy="156" cx="-24" stroke-linecap="null" stroke-linejoin="null" stroke-dasharray="null" stroke-width="5" fill="#180230"/>
  <g id="svg_7">
   <ellipse id="svg_31" transform="matrix(-0.676099 0.773371 -0.824784 -0.633954 673.134 198.377)" ry="202" rx="156.945534" cy="225.528356" cx="251.622602" stroke-width="5" fill="#3f007f"/>
   <ellipse id="svg_32" transform="matrix(0.108397 0.994821 -1.06096 0.10164 519.132 -56.447)" ry="202" rx="156.945534" cy="213.017456" cx="279.241568" stroke-width="5" fill="#180230"/>
   <path id="svg_33" fill="#d4aaff" stroke-width="0" stroke-dasharray="null" stroke-linejoin="null" stroke-linecap="null" d="m437.584473,246.054794c-6.136505,32.055557 -34.575928,66.682816 -71.784241,80.904861c-37.208313,14.222046 -85.538361,5.015686 -111.396362,-22.476196c-24.943909,-23.77771 -43.124451,-69.523758 -15.971832,-118.285721c24.410248,-35.333298 44.758331,-47.49205 77.192902,-50.666687c-47.873077,2.285721 -78.479675,16.190598 -106.444855,48.857132c-34.668808,44.095169 -27.795883,115.047424 22.142181,155.714264c30.741577,28.66687 104.988922,44.856842 156.416992,7.428619c47.162048,-33.999725 47.678406,-74.817749 49.845215,-101.476273z" filter="url(#svg_5_blur)"/>
   <path id="svg_34" fill="#ffffff" stroke-width="0" stroke-dasharray="null" stroke-linejoin="null" stroke-linecap="null" d="m452.159668,238.05484c-6.136475,32.055542 -34.575897,66.682739 -71.78421,80.904785c-37.208313,14.222046 -85.538391,5.015686 -111.396332,-22.476196c-24.94397,-23.777649 -43.124481,-69.523682 -15.971893,-118.28566c24.410217,-35.333282 44.758362,-47.492035 77.192932,-50.666687c-47.873077,2.285721 -78.479706,16.190582 -106.444916,48.857132c-34.668777,44.095169 -27.795822,115.047424 22.142242,155.714233c30.741547,28.66687 104.988922,44.856812 156.416992,7.428589c47.162048,-33.999634 47.678406,-74.817688 49.845184,-101.476196z"/>
   <g id="svg_35" transform="matrix(-0.0112166 0.999945 -1.06642 -0.0105174 549.583 -143.343)">
    <polygon id="svg_36" fill="#ffffaa" fill-rule="evenodd" points="333.50899267196655,222.94895935058594 337.05098485946655,233.96397399902344 347.8719687461853,229.86598205566406 341.4689841270447,239.5029754638672 351.4189658164978,245.40797424316406 339.8919882774353,246.4109649658203 341.4799704551697,257.8719940185547 333.50899267196655,249.48497009277344 325.5379843711853,257.8719940185547 327.1249899864197,246.4109649658203 315.59798192977905,245.40797424316406 325.5489706993103,239.5029754638672 319.1459860801697,229.86598205566406 329.9659934043884,233.96397399902344 333.50899267196655,222.94895935058594 "/>
    <polygon id="svg_37" fill="#ffffaa" fill-rule="evenodd" points="333.50899267196655,51.48646545410156 337.05098485946655,62.50117492675781 347.8719687461853,58.40327453613281 341.4689841270447,68.04057312011719 351.4189658164978,73.94596862792969 339.8919882774353,74.94798278808594 341.4799704551697,86.40898132324219 333.50899267196655,78.02299499511719 325.5379843711853,86.40898132324219 327.1249899864197,74.94798278808594 315.59798192977905,73.94596862792969 325.5489706993103,68.04057312011719 319.1459860801697,58.40327453613281 329.9659934043884,62.50117492675781 333.50899267196655,51.48646545410156 "/>
    <polygon id="svg_38" fill="#ffffaa" fill-rule="evenodd" points="269.2099814414978,121.14299011230469 272.7529807090759,132.15797424316406 283.5729880332947,128.0599822998047 277.1699728965759,137.69798278808594 287.1209921836853,143.6019744873047 275.5939841270447,144.60499572753906 277.18098974227905,156.0659637451172 269.2099814414978,147.67897033691406 261.23897314071655,156.0659637451172 262.82698583602905,144.60499572753906 251.29997777938843,143.6019744873047 261.2499899864197,137.69798278808594 254.84697484970093,128.0599822998047 265.6679892539978,132.15797424316406 269.2099814414978,121.14299011230469 "/>
    <polygon id="svg_39" fill="#ffffaa" fill-rule="evenodd" points="390.6619772911072,103.99699401855469 394.20699071884155,115.01197814941406 405.0259909629822,110.91395568847656 398.6219687461853,120.55097961425781 408.5749716758728,126.45597839355469 397.0489706993103,127.45896911621094 398.63496923446655,138.9199676513672 390.6619772911072,130.53297424316406 382.6929831504822,138.9199676513672 384.2789816856384,127.45896911621094 372.7529807090759,126.45597839355469 382.7009787559509,120.55097961425781 376.2999777793884,110.91395568847656 387.1209921836853,115.01197814941406 390.6619772911072,103.99699401855469 "/>
    <polygon id="svg_40" fill="#ffffaa" fill-rule="evenodd" points="359.22798681259155,155.58897399902344 362.0279746055603,162.4519805908203 369.4199728965759,162.9939727783203 363.7579855918884,167.77699279785156 365.5269675254822,174.97499084472656 359.22798681259155,171.06797790527344 352.9289755821228,174.97499084472656 354.6989645957947,167.77699279785156 349.03597021102905,162.9939727783203 356.4289755821228,162.4519805908203 359.22798681259155,155.58897399902344 "/>
   </g>
  </g>
 </g>
</svg>